<mxfile>
    <diagram id="AIWKNiMYjWNu91mybNwN" name="v1.0">
        <mxGraphModel dx="1003" dy="548" grid="1" gridSize="10" guides="1" tooltips="1" connect="1" arrows="1" fold="1" page="1" pageScale="1" pageWidth="827" pageHeight="1169" math="0" shadow="0">
            <root>
                <mxCell id="r9tCrdqP52zc_Ktqozt8-0"/>
                <mxCell id="r9tCrdqP52zc_Ktqozt8-1" parent="r9tCrdqP52zc_Ktqozt8-0"/>
                <mxCell id="z2LhJ73qYV1Ciekt4UjS-0" style="edgeStyle=orthogonalEdgeStyle;rounded=0;orthogonalLoop=1;jettySize=auto;html=1;" parent="r9tCrdqP52zc_Ktqozt8-1" source="z2LhJ73qYV1Ciekt4UjS-1" target="z2LhJ73qYV1Ciekt4UjS-2" edge="1">
                    <mxGeometry relative="1" as="geometry"/>
                </mxCell>
                <mxCell id="z2LhJ73qYV1Ciekt4UjS-1" value="&lt;p style=&quot;margin: 0px ; margin-top: 4px ; text-align: center&quot;&gt;ADL : XAPIStatement&lt;/p&gt;&lt;hr size=&quot;1&quot;&gt;&lt;p style=&quot;margin: 0px ; margin-left: 4px&quot;&gt;+ statement: Statement&lt;/p&gt;&lt;p style=&quot;margin: 0px ; margin-left: 4px&quot;&gt;+ verb: Verb&lt;br&gt;&lt;/p&gt;&lt;p style=&quot;margin: 0px ; margin-left: 4px&quot;&gt;+ object: Object&lt;br&gt;&lt;/p&gt;&lt;p style=&quot;margin: 0px ; margin-left: 4px&quot;&gt;+ result: Object&lt;br&gt;&lt;/p&gt;&lt;p style=&quot;margin: 0px ; margin-left: 4px&quot;&gt;+ activity: Activity&lt;br&gt;&lt;/p&gt;&lt;p style=&quot;margin: 0px ; margin-left: 4px&quot;&gt;+ context : Object&lt;/p&gt;&lt;p style=&quot;margin: 0px ; margin-left: 4px&quot;&gt;+ statementRef: StatementRef&lt;/p&gt;&lt;p style=&quot;margin: 0px ; margin-left: 4px&quot;&gt;+ subStatement: SubStatement&lt;/p&gt;&lt;p style=&quot;margin: 0px ; margin-left: 4px&quot;&gt;+ agent: Agent&lt;/p&gt;&lt;p style=&quot;margin: 0px ; margin-left: 4px&quot;&gt;+ actor: Object&lt;/p&gt;&lt;p style=&quot;margin: 0px ; margin-left: 4px&quot;&gt;+ id: UUID&lt;/p&gt;&lt;p style=&quot;margin: 0px ; margin-left: 4px&quot;&gt;+ name: String&lt;/p&gt;&lt;p style=&quot;margin: 0px ; margin-left: 4px&quot;&gt;+ member: Object&lt;/p&gt;&lt;p style=&quot;margin: 0px ; margin-left: 4px&quot;&gt;+ group : Group&lt;/p&gt;&lt;p style=&quot;margin: 0px ; margin-left: 4px&quot;&gt;+ activityName: String&lt;/p&gt;&lt;p style=&quot;margin: 0px ; margin-left: 4px&quot;&gt;+ activityDescription: String&lt;/p&gt;&lt;hr size=&quot;1&quot;&gt;&lt;p style=&quot;margin: 0px ; margin-left: 4px&quot;&gt;+ xAPIStatement(actor,verb,object,result): Statement&lt;/p&gt;&lt;p style=&quot;margin: 0px ; margin-left: 4px&quot;&gt;+ generateId(): UUID&lt;br&gt;&lt;/p&gt;&lt;p style=&quot;margin: 0px ; margin-left: 4px&quot;&gt;+ addOtherContextActivity(activity): Activity&lt;br&gt;&lt;/p&gt;&lt;p style=&quot;margin: 0px ; margin-left: 4px&quot;&gt;+ generateRegistration(): UUID&lt;br&gt;&lt;/p&gt;&lt;p style=&quot;margin: 0px ; margin-left: 4px&quot;&gt;+ agent(identifier, name) Agent&lt;/p&gt;&lt;p style=&quot;margin: 0px ; margin-left: 4px&quot;&gt;+ group(identifier, member, name): Group&lt;/p&gt;&lt;p style=&quot;margin: 0px ; margin-left: 4px&quot;&gt;+ verb(id,display): Verb&lt;br&gt;&lt;/p&gt;&lt;p style=&quot;margin: 0px ; margin-left: 4px&quot;&gt;+ activity(id,acrtivityName,activityDescription): Activity&lt;br&gt;&lt;/p&gt;&lt;p style=&quot;margin: 0px ; margin-left: 4px&quot;&gt;+ statementRef(id): StatementRef&lt;br&gt;&lt;/p&gt;&lt;p style=&quot;margin: 0px ; margin-left: 4px&quot;&gt;+ subStatement&lt;span&gt;(id): SubStatement&lt;/span&gt;&lt;/p&gt;" style="verticalAlign=top;align=left;overflow=fill;fontSize=12;fontFamily=Helvetica;html=1;collapsible=0;" parent="r9tCrdqP52zc_Ktqozt8-1" vertex="1">
                    <mxGeometry x="60" y="257.25" width="330" height="430" as="geometry">
                        <mxRectangle x="830" y="560" width="320" height="410" as="alternateBounds"/>
                    </mxGeometry>
                </mxCell>
                <mxCell id="z2LhJ73qYV1Ciekt4UjS-2" value="&lt;p style=&quot;margin: 0px ; margin-top: 4px ; text-align: center&quot;&gt;ADL : XAPIWrapper&lt;/p&gt;&lt;hr size=&quot;1&quot;&gt;&lt;p style=&quot;margin: 0px ; margin-left: 4px&quot;&gt;+ stmt: Statement&lt;/p&gt;&lt;p style=&quot;margin: 0px ; margin-left: 4px&quot;&gt;+ endpoint: String&lt;/p&gt;&lt;p style=&quot;margin: 0px ; margin-left: 4px&quot;&gt;+ identifier: String&lt;/p&gt;&lt;hr size=&quot;1&quot;&gt;&lt;p style=&quot;margin: 0px ; margin-left: 4px&quot;&gt;+ sendStatement(stmt) Void&lt;/p&gt;&lt;p style=&quot;margin: 0px ; margin-left: 4px&quot;&gt;+ changeConfig(endpoint): Void&lt;/p&gt;&lt;p style=&quot;margin: 0px ; margin-left: 4px&quot;&gt;+ hash(identifier): String&lt;br&gt;&lt;/p&gt;" style="verticalAlign=top;align=left;overflow=fill;fontSize=12;fontFamily=Helvetica;html=1;collapsible=0;expand=1;editable=1;" parent="r9tCrdqP52zc_Ktqozt8-1" vertex="1">
                    <mxGeometry x="60" y="40" width="330" height="145" as="geometry">
                        <mxRectangle x="1280" y="692.5" width="200" height="130" as="alternateBounds"/>
                    </mxGeometry>
                </mxCell>
                <mxCell id="XDvLV7WI26wevUbWUAwo-1" value="&lt;p style=&quot;margin: 0px ; margin-top: 4px ; text-align: center&quot;&gt;&lt;span&gt;XAPIBuilder&lt;/span&gt;&lt;br&gt;&lt;/p&gt;&lt;hr size=&quot;1&quot;&gt;&amp;nbsp;+ RET_CODE : Array&lt;br&gt;&lt;p style=&quot;margin: 0px ; margin-left: 4px&quot;&gt;+ Actor : type&lt;/p&gt;&lt;p style=&quot;margin: 0px ; margin-left: 4px&quot;&gt;+ Context : type&lt;/p&gt;&lt;p style=&quot;margin: 0px ; margin-left: 4px&quot;&gt;&lt;span&gt;+ Attachment : type&lt;/span&gt;&lt;/p&gt;&lt;p style=&quot;margin: 0px ; margin-left: 4px&quot;&gt;&lt;span&gt;+ Profile : type&lt;/span&gt;&lt;/p&gt;&lt;p style=&quot;margin: 0px ; margin-left: 4px&quot;&gt;&lt;span&gt;&lt;br&gt;&lt;/span&gt;&lt;/p&gt;&lt;p style=&quot;margin: 0px 0px 0px 4px&quot;&gt;- _activityData : Object&lt;br&gt;&lt;/p&gt;&lt;p style=&quot;margin: 0px 0px 0px 4px&quot;&gt;- _actionData : Object&lt;/p&gt;&lt;p style=&quot;margin: 0px 0px 0px 4px&quot;&gt;&lt;br&gt;&lt;/p&gt;&lt;p style=&quot;margin: 0px 0px 0px 4px&quot;&gt;- _profiles : Profile []&lt;/p&gt;&lt;p style=&quot;margin: 0px 0px 0px 4px&quot;&gt;- _actor : Actor&lt;/p&gt;&lt;p style=&quot;margin: 0px 0px 0px 4px&quot;&gt;- _context : Context&lt;/p&gt;&lt;p style=&quot;margin: 0px 0px 0px 4px&quot;&gt;- _activity : Activity&lt;/p&gt;&lt;p style=&quot;margin: 0px 0px 0px 4px&quot;&gt;- _verb : Verb&lt;/p&gt;&lt;p style=&quot;margin: 0px 0px 0px 4px&quot;&gt;- _extensions : Extension []&lt;/p&gt;&lt;p style=&quot;margin: 0px ; margin-left: 4px&quot;&gt;&lt;span&gt;- _result : Result&lt;/span&gt;&lt;/p&gt;&lt;p style=&quot;margin: 0px ; margin-left: 4px&quot;&gt;- _attachments : Attachment []&lt;/p&gt;&lt;p style=&quot;margin: 0px ; margin-left: 4px&quot;&gt;- _statement : Statement&lt;/p&gt;&lt;hr size=&quot;1&quot;&gt;&amp;nbsp;+ initializeXAPI (data : Object) : RET_CODE&lt;br&gt;&amp;nbsp;- validateActivityData (_activityData) : RET_CODE&lt;br&gt;&lt;p style=&quot;margin: 0px 0px 0px 4px&quot;&gt;- setActor (_activityData) : _actor&lt;/p&gt;&lt;p style=&quot;margin: 0px 0px 0px 4px&quot;&gt;- setContext (_activityData) : _context&lt;/p&gt;&lt;p style=&quot;margin: 0px 0px 0px 4px&quot;&gt;&lt;br&gt;&lt;/p&gt;&amp;nbsp;+ setXAPIData (data) : RET_CODE&lt;br&gt;&lt;p style=&quot;margin: 0px ; margin-left: 4px&quot;&gt;&lt;span&gt;- validateActionData (_actionData) : RET_CODE&lt;/span&gt;&lt;br&gt;&lt;/p&gt;&lt;p style=&quot;margin: 0px ; margin-left: 4px&quot;&gt;- getProfile (_actionData) : _profiles&lt;/p&gt;&lt;p style=&quot;margin: 0px ; margin-left: 4px&quot;&gt;- getVerb (_actionData) : _verb&lt;/p&gt;&lt;p style=&quot;margin: 0px ; margin-left: 4px&quot;&gt;- getActivity (_actionData) : _activity&lt;/p&gt;&lt;p style=&quot;margin: 0px ; margin-left: 4px&quot;&gt;- getExtensions (_actionData) : _extensions&lt;/p&gt;&lt;p style=&quot;margin: 0px ; margin-left: 4px&quot;&gt;- getResult (_actionData) : _result&lt;/p&gt;&lt;p style=&quot;margin: 0px ; margin-left: 4px&quot;&gt;- getContext (_actionData) : _context&lt;/p&gt;&lt;p style=&quot;margin: 0px ; margin-left: 4px&quot;&gt;- validateProfile () : Boolean&lt;/p&gt;&lt;p style=&quot;margin: 0px ; margin-left: 4px&quot;&gt;&lt;br&gt;&lt;/p&gt;&lt;p style=&quot;margin: 0px ; margin-left: 4px&quot;&gt;- getStatement (_actor, _verb, _activity) : _statement&lt;/p&gt;&lt;p style=&quot;margin: 0px ; margin-left: 4px&quot;&gt;&lt;br&gt;&lt;/p&gt;&lt;p style=&quot;margin: 0px ; margin-left: 4px&quot;&gt;- setResult (_result) : _statement&lt;/p&gt;&lt;p style=&quot;margin: 0px ; margin-left: 4px&quot;&gt;- setResultExt (_extensions) : _statement&lt;/p&gt;&lt;p style=&quot;margin: 0px ; margin-left: 4px&quot;&gt;- setContextExt (_extensions) : _statement&lt;/p&gt;&lt;p style=&quot;margin: 0px ; margin-left: 4px&quot;&gt;- setObjectExt (_extensions) : _statement&lt;/p&gt;&lt;p style=&quot;margin: 0px ; margin-left: 4px&quot;&gt;- setAttachments (_attachments) : _statement&lt;/p&gt;&lt;p style=&quot;margin: 0px ; margin-left: 4px&quot;&gt;- sendStatement (_statement) : RET_CODE&lt;/p&gt;" style="verticalAlign=top;align=left;overflow=fill;fontSize=12;fontFamily=Helvetica;html=1;collapsible=0;" parent="r9tCrdqP52zc_Ktqozt8-1" vertex="1">
                    <mxGeometry x="452" y="40" width="302.5" height="630" as="geometry"/>
                </mxCell>
                <mxCell id="XDvLV7WI26wevUbWUAwo-4" value="" style="endArrow=classic;html=1;exitX=0;exitY=0.5;exitDx=0;exitDy=0;entryX=1;entryY=0.5;entryDx=0;entryDy=0;" parent="r9tCrdqP52zc_Ktqozt8-1" source="XDvLV7WI26wevUbWUAwo-1" target="z2LhJ73qYV1Ciekt4UjS-2" edge="1">
                    <mxGeometry width="50" height="50" relative="1" as="geometry">
                        <mxPoint x="390" y="480" as="sourcePoint"/>
                        <mxPoint x="440" y="430" as="targetPoint"/>
                    </mxGeometry>
                </mxCell>
                <mxCell id="XDvLV7WI26wevUbWUAwo-9" value="ADL : Crypto Library" style="swimlane;" parent="r9tCrdqP52zc_Ktqozt8-1" vertex="1" collapsed="1">
                    <mxGeometry x="120" y="784.13" width="160" height="23" as="geometry">
                        <mxRectangle x="1345" y="450" width="200" height="200" as="alternateBounds"/>
                    </mxGeometry>
                </mxCell>
                <mxCell id="XDvLV7WI26wevUbWUAwo-10" value="ADL : UTF8 Encoding" style="swimlane;" parent="r9tCrdqP52zc_Ktqozt8-1" vertex="1" collapsed="1">
                    <mxGeometry x="120" y="824.13" width="160" height="23" as="geometry">
                        <mxRectangle x="1345" y="450" width="200" height="200" as="alternateBounds"/>
                    </mxGeometry>
                </mxCell>
                <mxCell id="XDvLV7WI26wevUbWUAwo-11" value="ADL : XAPIUtil" style="swimlane;" parent="r9tCrdqP52zc_Ktqozt8-1" vertex="1" collapsed="1">
                    <mxGeometry x="120" y="864.13" width="160" height="23" as="geometry">
                        <mxRectangle x="1345" y="450" width="200" height="200" as="alternateBounds"/>
                    </mxGeometry>
                </mxCell>
                <mxCell id="XDvLV7WI26wevUbWUAwo-12" value="ADL : ActivityTypes" style="swimlane;" parent="r9tCrdqP52zc_Ktqozt8-1" vertex="1" collapsed="1">
                    <mxGeometry x="120" y="904.13" width="160" height="23" as="geometry">
                        <mxRectangle x="120" y="904.13" width="200" height="200" as="alternateBounds"/>
                    </mxGeometry>
                </mxCell>
                <mxCell id="XDvLV7WI26wevUbWUAwo-13" value="ADL : Verbs" style="swimlane;" parent="r9tCrdqP52zc_Ktqozt8-1" vertex="1" collapsed="1">
                    <mxGeometry x="120" y="944.13" width="160" height="23" as="geometry">
                        <mxRectangle x="1345" y="450" width="200" height="200" as="alternateBounds"/>
                    </mxGeometry>
                </mxCell>
                <mxCell id="XDvLV7WI26wevUbWUAwo-14" value="ADL : XAPILaunch" style="swimlane;" parent="r9tCrdqP52zc_Ktqozt8-1" vertex="1" collapsed="1">
                    <mxGeometry x="120" y="984.13" width="160" height="23" as="geometry">
                        <mxRectangle x="1345" y="450" width="200" height="200" as="alternateBounds"/>
                    </mxGeometry>
                </mxCell>
                <mxCell id="XDvLV7WI26wevUbWUAwo-15" value="Config" style="swimlane;" parent="r9tCrdqP52zc_Ktqozt8-1" vertex="1" collapsed="1">
                    <mxGeometry x="120" y="1024.13" width="160" height="23" as="geometry">
                        <mxRectangle x="1400" y="300" width="200" height="200" as="alternateBounds"/>
                    </mxGeometry>
                </mxCell>
                <mxCell id="XDvLV7WI26wevUbWUAwo-16" value="&lt;p style=&quot;margin: 0px ; margin-top: 4px ; text-align: center&quot;&gt;&lt;span&gt;Profile&lt;/span&gt;&lt;br&gt;&lt;/p&gt;&lt;hr size=&quot;1&quot;&gt;&lt;p style=&quot;margin: 0px ; margin-left: 4px&quot;&gt;+ Activity : type&lt;/p&gt;&lt;p style=&quot;margin: 0px ; margin-left: 4px&quot;&gt;+ Verb : type&lt;/p&gt;&lt;p style=&quot;margin: 0px ; margin-left: 4px&quot;&gt;+ Extension : type&lt;/p&gt;&lt;p style=&quot;margin: 0px ; margin-left: 4px&quot;&gt;+ Result : type&lt;/p&gt;&lt;p style=&quot;margin: 0px ; margin-left: 4px&quot;&gt;+ Profile : type&lt;/p&gt;&lt;p style=&quot;margin: 0px ; margin-left: 4px&quot;&gt;&lt;br&gt;&lt;/p&gt;&lt;hr size=&quot;1&quot;&gt;&lt;p style=&quot;margin: 0px ; margin-left: 4px&quot;&gt;&lt;span&gt;+ validateVerbName (verbName : String) : Boolean&lt;/span&gt;&lt;/p&gt;&lt;p style=&quot;margin: 0px ; margin-left: 4px&quot;&gt;&lt;span&gt;+ getVerb (verbName : String) : Verb&lt;/span&gt;&lt;br&gt;&lt;/p&gt;&lt;p style=&quot;margin: 0px ; margin-left: 4px&quot;&gt;&lt;span&gt;&lt;br&gt;&lt;/span&gt;&lt;/p&gt;&lt;p style=&quot;margin: 0px ; margin-left: 4px&quot;&gt;&lt;span&gt;+ validateActivityName (objectActivityName: String&lt;/span&gt;&lt;span&gt;) : Boolean&lt;/span&gt;&lt;/p&gt;&lt;p style=&quot;margin: 0px ; margin-left: 4px&quot;&gt;&lt;span&gt;+ getActivity (objectActivityName: String, objectID: String,&lt;/span&gt;&lt;/p&gt;&lt;p style=&quot;margin: 0px ; margin-left: 4px&quot;&gt;&lt;span&gt;&amp;nbsp;definitionName :String, description :Object) : Activity&lt;/span&gt;&lt;/p&gt;&lt;p style=&quot;margin: 0px ; margin-left: 4px&quot;&gt;&lt;span&gt;&lt;br&gt;&lt;/span&gt;&lt;/p&gt;&lt;p style=&quot;margin: 0px 0px 0px 4px&quot;&gt;+ validateResult (result : Object) : Boolean&lt;/p&gt;&lt;p style=&quot;margin: 0px 0px 0px 4px&quot;&gt;+ getResult (verbName: String , result: Object, extension: Object) : Result&lt;/p&gt;&lt;p style=&quot;margin: 0px ; margin-left: 4px&quot;&gt;&lt;span&gt;&lt;br&gt;&lt;/span&gt;&lt;/p&gt;&lt;p style=&quot;margin: 0px ; margin-left: 4px&quot;&gt;+ validateExtensionName (extName : String) : Boolean&lt;/p&gt;&lt;p style=&quot;margin: 0px ; margin-left: 4px&quot;&gt;&lt;br&gt;&lt;/p&gt;&lt;p style=&quot;margin: 0px ; margin-left: 4px&quot;&gt;+ setVerb (verb : Verb) : Boolean&lt;/p&gt;&lt;p style=&quot;margin: 0px ; margin-left: 4px&quot;&gt;+ setActivity (objectActivityName: String, objectID: String,&amp;nbsp;&lt;/p&gt;&lt;p style=&quot;margin: 0px ; margin-left: 4px&quot;&gt;&amp;nbsp; &amp;nbsp;definitionName :String, description : Object) : Boolean&lt;/p&gt;&lt;p style=&quot;margin: 0px ; margin-left: 4px&quot;&gt;&lt;span&gt;+ setResult (verbName: String , result: Object, extension: Object) : Boolean&lt;/span&gt;&lt;/p&gt;&lt;p style=&quot;margin: 0px ; margin-left: 4px&quot;&gt;&lt;span&gt;+ setContext(extensions : Object) : Boolean&lt;/span&gt;&lt;/p&gt;&lt;p style=&quot;margin: 0px ; margin-left: 4px&quot;&gt;+ setContextExtension(extensions : Object) : Boolean&lt;span&gt;&lt;br&gt;&lt;/span&gt;&lt;/p&gt;&lt;p style=&quot;margin: 0px ; margin-left: 4px&quot;&gt;&lt;br&gt;&lt;/p&gt;&lt;p style=&quot;margin: 0px ; margin-left: 4px&quot;&gt;&lt;span&gt;+ validateProfile (profile : Profile) : Boolean&lt;/span&gt;&lt;/p&gt;" style="verticalAlign=top;align=left;overflow=fill;fontSize=12;fontFamily=Helvetica;html=1;collapsible=0;treeFolding=0;container=0;" parent="r9tCrdqP52zc_Ktqozt8-1" vertex="1">
                    <mxGeometry x="408.25" y="710" width="411.75" height="450" as="geometry"/>
                </mxCell>
                <mxCell id="XDvLV7WI26wevUbWUAwo-17" value="" style="endArrow=classic;html=1;entryX=1;entryY=0.5;entryDx=0;entryDy=0;exitX=0;exitY=0.5;exitDx=0;exitDy=0;dashed=1;" parent="r9tCrdqP52zc_Ktqozt8-1" source="XDvLV7WI26wevUbWUAwo-5" target="XDvLV7WI26wevUbWUAwo-16" edge="1">
                    <mxGeometry width="50" height="50" relative="1" as="geometry">
                        <mxPoint x="790" y="910" as="sourcePoint"/>
                        <mxPoint x="840" y="860" as="targetPoint"/>
                    </mxGeometry>
                </mxCell>
                <mxCell id="XDvLV7WI26wevUbWUAwo-18" value="" style="endArrow=classic;html=1;entryX=1;entryY=0.5;entryDx=0;entryDy=0;exitX=0;exitY=0.5;exitDx=0;exitDy=0;dashed=1;" parent="r9tCrdqP52zc_Ktqozt8-1" source="XDvLV7WI26wevUbWUAwo-6" target="XDvLV7WI26wevUbWUAwo-16" edge="1">
                    <mxGeometry width="50" height="50" relative="1" as="geometry">
                        <mxPoint x="241.25" y="890" as="sourcePoint"/>
                        <mxPoint x="181.25" y="710" as="targetPoint"/>
                    </mxGeometry>
                </mxCell>
                <mxCell id="XDvLV7WI26wevUbWUAwo-19" value="" style="endArrow=classic;html=1;exitX=0;exitY=0.5;exitDx=0;exitDy=0;dashed=1;entryX=1;entryY=0.5;entryDx=0;entryDy=0;" parent="r9tCrdqP52zc_Ktqozt8-1" source="XDvLV7WI26wevUbWUAwo-7" target="XDvLV7WI26wevUbWUAwo-16" edge="1">
                    <mxGeometry width="50" height="50" relative="1" as="geometry">
                        <mxPoint x="665" y="890" as="sourcePoint"/>
                        <mxPoint x="181.25" y="710" as="targetPoint"/>
                    </mxGeometry>
                </mxCell>
                <mxCell id="XDvLV7WI26wevUbWUAwo-20" value="" style="endArrow=classic;html=1;entryX=0.5;entryY=0;entryDx=0;entryDy=0;exitX=0.5;exitY=1;exitDx=0;exitDy=0;" parent="r9tCrdqP52zc_Ktqozt8-1" source="XDvLV7WI26wevUbWUAwo-1" target="XDvLV7WI26wevUbWUAwo-16" edge="1">
                    <mxGeometry width="50" height="50" relative="1" as="geometry">
                        <mxPoint x="751" y="710" as="sourcePoint"/>
                        <mxPoint x="1020" y="255" as="targetPoint"/>
                        <Array as="points"/>
                    </mxGeometry>
                </mxCell>
                <mxCell id="XDvLV7WI26wevUbWUAwo-6" value="&lt;p style=&quot;margin: 0px ; margin-top: 4px ; text-align: center&quot;&gt;Session Profile&lt;/p&gt;&lt;hr size=&quot;1&quot;&gt;&lt;p style=&quot;margin: 0px 0px 0px 4px&quot;&gt;+ profile : Profile&lt;br&gt;&lt;/p&gt;&lt;p style=&quot;margin: 0px 0px 0px 4px&quot;&gt;+ verbs : Verb []&lt;br&gt;&lt;/p&gt;&lt;p style=&quot;margin: 0px 0px 0px 4px&quot;&gt;+ activities : Activity []&lt;/p&gt;&lt;p style=&quot;margin: 0px 0px 0px 4px&quot;&gt;+ resultExtensions : Extension []&lt;/p&gt;&lt;p style=&quot;margin: 0px 0px 0px 4px&quot;&gt;+ contextExtensions : Extension []&lt;/p&gt;&lt;p style=&quot;margin: 0px 0px 0px 4px&quot;&gt;&lt;br&gt;&lt;/p&gt;&lt;p style=&quot;margin: 0px 0px 0px 4px&quot;&gt;- _verb : Verb&lt;/p&gt;&lt;p style=&quot;margin: 0px 0px 0px 4px&quot;&gt;- _activity : Activity&lt;/p&gt;&lt;p style=&quot;margin: 0px 0px 0px 4px&quot;&gt;- _result : Result&lt;/p&gt;&lt;p style=&quot;margin: 0px 0px 0px 4px&quot;&gt;- _resultExtensions : Extension []&lt;/p&gt;&lt;p style=&quot;margin: 0px 0px 0px 4px&quot;&gt;- _contextExtensions : Extension []&lt;/p&gt;&lt;hr size=&quot;1&quot;&gt;&lt;p style=&quot;margin: 0px 0px 0px 4px&quot;&gt;+ validateVerbName (verbName : String) : Boolean&lt;/p&gt;&lt;p style=&quot;margin: 0px 0px 0px 4px&quot;&gt;+ getVerb (verbName : String) : Verb&lt;br&gt;&lt;/p&gt;&lt;p style=&quot;margin: 0px 0px 0px 4px&quot;&gt;&lt;br&gt;&lt;/p&gt;&lt;p style=&quot;margin: 0px 0px 0px 4px&quot;&gt;+ validateActivityName (activityName : String) : Boolean&lt;/p&gt;&lt;p style=&quot;margin: 0px 0px 0px 4px&quot;&gt;+ getActivity (activityName : String) : Activity&lt;/p&gt;&lt;p style=&quot;margin: 0px 0px 0px 4px&quot;&gt;&lt;br&gt;&lt;/p&gt;&lt;p style=&quot;margin: 0px 0px 0px 4px&quot;&gt;+ validateExtensionName (extName : String) : Boolean&lt;/p&gt;&lt;p style=&quot;margin: 0px 0px 0px 4px&quot;&gt;+ getExtension (extName : String) : Extension&lt;/p&gt;&lt;p style=&quot;margin: 0px 0px 0px 4px&quot;&gt;&lt;br&gt;&lt;/p&gt;&lt;p style=&quot;margin: 0px 0px 0px 4px&quot;&gt;+ setVerb (verb : Verb) : Boolean&lt;/p&gt;&lt;p style=&quot;margin: 0px 0px 0px 4px&quot;&gt;+ setActivity (activity : Activity) : Boolean&lt;/p&gt;&lt;p style=&quot;margin: 0px 0px 0px 4px&quot;&gt;+ setResult (result : Result) : Boolean&lt;br&gt;&lt;/p&gt;&lt;p style=&quot;margin: 0px 0px 0px 4px&quot;&gt;+ setResultExtension (resultExtensions : Extension []) : Boolean&lt;/p&gt;&lt;p style=&quot;margin: 0px 0px 0px 4px&quot;&gt;+ setContextExtension (contextExtensions : Extension []) : Boolean&lt;/p&gt;&lt;p style=&quot;margin: 0px 0px 0px 4px&quot;&gt;&lt;br&gt;&lt;/p&gt;&lt;p style=&quot;margin: 0px 0px 0px 4px&quot;&gt;+ getCurrentVerb () : _verb&lt;/p&gt;&lt;p style=&quot;margin: 0px 0px 0px 4px&quot;&gt;+ getCurrentActivity () : _activity&lt;/p&gt;&lt;p style=&quot;margin: 0px 0px 0px 4px&quot;&gt;+ getCurrentResult () : _result&lt;/p&gt;&lt;p style=&quot;margin: 0px 0px 0px 4px&quot;&gt;+ getCurrentResultExtension () : _resultExtensions&lt;/p&gt;&lt;p style=&quot;margin: 0px 0px 0px 4px&quot;&gt;+ getCurrentContextExtension () : _contextExtensions&lt;/p&gt;&lt;p style=&quot;margin: 0px 0px 0px 4px&quot;&gt;&lt;br&gt;&lt;/p&gt;&lt;p style=&quot;margin: 0px 0px 0px 4px&quot;&gt;+ validateProfile () : Boolean&lt;/p&gt;" style="verticalAlign=top;align=left;overflow=fill;fontSize=12;fontFamily=Helvetica;html=1;collapsible=0;" parent="r9tCrdqP52zc_Ktqozt8-1" vertex="1">
                    <mxGeometry x="1270" y="450" width="372" height="528.5" as="geometry"/>
                </mxCell>
                <mxCell id="XDvLV7WI26wevUbWUAwo-7" value="&lt;p style=&quot;margin: 0px ; margin-top: 4px ; text-align: center&quot;&gt;Navigation Profile&lt;/p&gt;&lt;hr size=&quot;1&quot;&gt;&lt;p style=&quot;margin: 0px 0px 0px 4px&quot;&gt;+ profile : Profile&lt;br&gt;&lt;/p&gt;&lt;p style=&quot;margin: 0px 0px 0px 4px&quot;&gt;+ verbs : Verb []&lt;br&gt;&lt;/p&gt;&lt;p style=&quot;margin: 0px 0px 0px 4px&quot;&gt;+ activities : Activity []&lt;/p&gt;&lt;p style=&quot;margin: 0px 0px 0px 4px&quot;&gt;+ resultExtensions : Extension []&lt;/p&gt;&lt;p style=&quot;margin: 0px 0px 0px 4px&quot;&gt;+ contextExtensions : Extension []&lt;/p&gt;&lt;p style=&quot;margin: 0px 0px 0px 4px&quot;&gt;&lt;br&gt;&lt;/p&gt;&lt;p style=&quot;margin: 0px 0px 0px 4px&quot;&gt;- _verb : Verb&lt;/p&gt;&lt;p style=&quot;margin: 0px 0px 0px 4px&quot;&gt;- _activity : Activity&lt;/p&gt;&lt;p style=&quot;margin: 0px 0px 0px 4px&quot;&gt;- _result : Result&lt;/p&gt;&lt;p style=&quot;margin: 0px 0px 0px 4px&quot;&gt;- _context : Context&lt;/p&gt;&lt;p style=&quot;margin: 0px 0px 0px 4px&quot;&gt;- _resultExtensions : Extension []&lt;/p&gt;&lt;p style=&quot;margin: 0px 0px 0px 4px&quot;&gt;- _contextExtensions : Extension []&lt;/p&gt;&lt;hr size=&quot;1&quot;&gt;&lt;p style=&quot;margin: 0px 0px 0px 4px&quot;&gt;+ validateVerbName (verbName : String) : Boolean&lt;/p&gt;&lt;p style=&quot;margin: 0px 0px 0px 4px&quot;&gt;+ getVerb (verbName : String) : Verb&lt;br&gt;&lt;/p&gt;&lt;p style=&quot;margin: 0px 0px 0px 4px&quot;&gt;&lt;br&gt;&lt;/p&gt;&lt;p style=&quot;margin: 0px 0px 0px 4px&quot;&gt;+ validateActivityName (activityName : String) : Boolean&lt;/p&gt;&lt;p style=&quot;margin: 0px 0px 0px 4px&quot;&gt;+ getActivity (activityName : String) : Activity&lt;/p&gt;&lt;p style=&quot;margin: 0px 0px 0px 4px&quot;&gt;&lt;br&gt;&lt;/p&gt;&lt;p style=&quot;margin: 0px 0px 0px 4px&quot;&gt;+ validateResultProperties (resultProperties : Object &amp;lt;verbName, resultData, resultExtensionData&amp;gt;) : Boolean&lt;/p&gt;&lt;p style=&quot;margin: 0px 0px 0px 4px&quot;&gt;+ getResult (resultProperties : Object &amp;lt;verbName, resultData, resultExtensionData&amp;gt;) : Result&lt;/p&gt;&lt;p style=&quot;margin: 0px 0px 0px 4px&quot;&gt;&lt;br&gt;&lt;/p&gt;&lt;p style=&quot;margin: 0px 0px 0px 4px&quot;&gt;+ validateContext (contextProperties : Object &amp;lt;verbName, contextData, contextExtensionData&amp;gt;) : Boolean&lt;/p&gt;&lt;p style=&quot;margin: 0px 0px 0px 4px&quot;&gt;+ getContext (contextProperties : Object &amp;lt;verbName, contextData, contextExtensionData&amp;gt;) : Context&lt;/p&gt;&lt;p style=&quot;margin: 0px 0px 0px 4px&quot;&gt;&lt;br&gt;&lt;/p&gt;&lt;p style=&quot;margin: 0px 0px 0px 4px&quot;&gt;+ setVerb (verb : Verb) : Boolean&lt;/p&gt;&lt;p style=&quot;margin: 0px 0px 0px 4px&quot;&gt;+ setActivity (activity : Activity) : Boolean&lt;/p&gt;&lt;p style=&quot;margin: 0px 0px 0px 4px&quot;&gt;+ setResult (result : Result) : Boolean&lt;br&gt;&lt;/p&gt;&lt;p style=&quot;margin: 0px 0px 0px 4px&quot;&gt;+ setResultExtension (resultExtensions : Extension []) : Boolean&lt;/p&gt;&lt;p style=&quot;margin: 0px 0px 0px 4px&quot;&gt;+ setContextExtension (contextExtensions : Extension []) : Boolean&lt;/p&gt;&lt;p style=&quot;margin: 0px 0px 0px 4px&quot;&gt;&lt;br&gt;&lt;/p&gt;&lt;p style=&quot;margin: 0px 0px 0px 4px&quot;&gt;+ getCurrentVerb () : _verb&lt;/p&gt;&lt;p style=&quot;margin: 0px 0px 0px 4px&quot;&gt;+ getCurrentActivity () : _activity&lt;/p&gt;&lt;p style=&quot;margin: 0px 0px 0px 4px&quot;&gt;+ getCurrentResult () : _result&lt;/p&gt;&lt;p style=&quot;margin: 0px 0px 0px 4px&quot;&gt;+ getCurrentResultExtension () : _resultExtensions&lt;/p&gt;&lt;p style=&quot;margin: 0px 0px 0px 4px&quot;&gt;+ getCurrentContextExtension () : _contextExtensions&lt;/p&gt;&lt;p style=&quot;margin: 0px 0px 0px 4px&quot;&gt;&lt;br&gt;&lt;/p&gt;&lt;p style=&quot;margin: 0px 0px 0px 4px&quot;&gt;+ validateProfile () : Boolean&lt;/p&gt;" style="verticalAlign=top;align=left;overflow=fill;fontSize=12;fontFamily=Helvetica;html=1;collapsible=0;recursiveResize=1;backgroundOutline=0;treeFolding=0;container=1;" parent="r9tCrdqP52zc_Ktqozt8-1" vertex="1" collapsed="1">
                    <mxGeometry x="1170" y="480" width="420" height="587.75" as="geometry">
                        <mxRectangle x="750" y="1090" width="302.5" height="270" as="alternateBounds"/>
                    </mxGeometry>
                </mxCell>
                <mxCell id="XDvLV7WI26wevUbWUAwo-5" value="&lt;p style=&quot;margin: 0px ; margin-top: 4px ; text-align: center&quot;&gt;Media Profile&lt;/p&gt;&lt;hr size=&quot;1&quot;&gt;&amp;nbsp;&lt;span&gt;+verbName : String&lt;br&gt;&lt;/span&gt;&amp;nbsp;+activityName : String&lt;br&gt;&amp;nbsp;+objectID : String&lt;br&gt;&amp;nbsp;+definitionName : String&lt;br&gt;&amp;nbsp;+description : Object&lt;br&gt;&amp;nbsp;+result : Object&lt;br&gt;&amp;nbsp;+extensions: Object&lt;br&gt;&lt;p style=&quot;margin: 0px ; margin-left: 4px&quot;&gt;-segments : String&amp;nbsp;&lt;/p&gt;&lt;p style=&quot;margin: 0px ; margin-left: 4px&quot;&gt;-played_segments : String&amp;nbsp;&lt;/p&gt;&lt;p style=&quot;margin: 0px ; margin-left: 4px&quot;&gt;-startSegments : Number&lt;/p&gt;&lt;p style=&quot;margin: 0px ; margin-left: 4px&quot;&gt;-endSegments : Number&lt;/p&gt;&lt;p style=&quot;margin: 0px ; margin-left: 4px&quot;&gt;-duration : String&lt;/p&gt;&lt;p style=&quot;margin: 0px ; margin-left: 4px&quot;&gt;-mediaSessionId : UUID&lt;/p&gt;&lt;p style=&quot;margin: 0px ; margin-left: 4px&quot;&gt;-started : Boolean&lt;/p&gt;&amp;nbsp;-duration : Number&lt;p style=&quot;margin: 0px ; margin-left: 4px&quot;&gt;&lt;br&gt;&lt;/p&gt;&lt;p style=&quot;margin: 0px ; margin-left: 4px&quot;&gt;- _verb : Verb&lt;/p&gt;&lt;p style=&quot;margin: 0px ; margin-left: 4px&quot;&gt;- _activity : Activity&lt;/p&gt;&lt;p style=&quot;margin: 0px ; margin-left: 4px&quot;&gt;- _result : Result&lt;/p&gt;&lt;p style=&quot;margin: 0px ; margin-left: 4px&quot;&gt;- _resultExtensions : Extension []&lt;/p&gt;&lt;p style=&quot;margin: 0px ; margin-left: 4px&quot;&gt;- _contextExtensions : Extension []&lt;/p&gt;&lt;hr size=&quot;1&quot;&gt;&lt;p style=&quot;margin: 0px 0px 0px 4px&quot;&gt;+ validateVerbName (verbName : String) : Boolean&lt;/p&gt;&lt;p style=&quot;margin: 0px 0px 0px 4px&quot;&gt;+ getVerb (verbName : String) : Verb&lt;br&gt;&lt;/p&gt;&lt;p style=&quot;margin: 0px 0px 0px 4px&quot;&gt;&lt;br&gt;&lt;/p&gt;&lt;p style=&quot;margin: 0px 0px 0px 4px&quot;&gt;+ validateActivityName (objectActivityName: String&lt;span&gt;) : Boolean&lt;/span&gt;&lt;/p&gt;&lt;p style=&quot;margin: 0px 0px 0px 4px&quot;&gt;+ getActivity (objectActivityName: String, objectID: String,&lt;/p&gt;&lt;p style=&quot;margin: 0px 0px 0px 4px&quot;&gt;&amp;nbsp; &amp;nbsp;definitionName :String, description :Object) : Activity&lt;/p&gt;&lt;p style=&quot;margin: 0px 0px 0px 4px&quot;&gt;&lt;br&gt;&lt;/p&gt;&lt;p style=&quot;margin: 0px 0px 0px 4px&quot;&gt;+ validateResult (result : Object) : Boolean&lt;/p&gt;&lt;p style=&quot;margin: 0px 0px 0px 4px&quot;&gt;+ getResult (verbName: String , result: Object, extension: Object) : Result&lt;/p&gt;&lt;p style=&quot;margin: 0px 0px 0px 4px&quot;&gt;&lt;br&gt;&lt;/p&gt;&lt;p style=&quot;margin: 0px 0px 0px 4px&quot;&gt;+ validateExtensionName (extenstions: Object) : Boolean&lt;/p&gt;&lt;p style=&quot;margin: 0px 0px 0px 4px&quot;&gt;&lt;br&gt;&lt;/p&gt;&lt;p style=&quot;margin: 0px 0px 0px 4px&quot;&gt;+ setVerb (verbName: string) : Boolean&lt;/p&gt;&lt;p style=&quot;margin: 0px 0px 0px 4px&quot;&gt;+ setActivity (objectActivityName: String, objectID: String,&amp;nbsp;&lt;/p&gt;&lt;p style=&quot;margin: 0px 0px 0px 4px&quot;&gt;&amp;nbsp; &amp;nbsp;definitionName :String, description : Object) : Boolean&lt;/p&gt;&lt;p style=&quot;margin: 0px 0px 0px 4px&quot;&gt;+ setResult (verbName: String , result: Object, extension: Object) : Boolean&lt;/p&gt;&lt;p style=&quot;margin: 0px 0px 0px 4px&quot;&gt;+ setContext(extensions : Object) : Boolean&lt;/p&gt;&lt;p style=&quot;margin: 0px 0px 0px 4px&quot;&gt;+ setContextExtension(extensions : Object) : Boolean&lt;br&gt;&lt;/p&gt;&lt;p style=&quot;margin: 0px 0px 0px 4px&quot;&gt;&lt;br&gt;&lt;/p&gt;&lt;p style=&quot;margin: 0px 0px 0px 4px&quot;&gt;+ getCurrentVerb () : _verb&lt;/p&gt;&lt;p style=&quot;margin: 0px 0px 0px 4px&quot;&gt;+ getCurrentActivity () : _activity&lt;/p&gt;&lt;p style=&quot;margin: 0px 0px 0px 4px&quot;&gt;+ getCurrentResult () : _result&lt;/p&gt;&lt;p style=&quot;margin: 0px 0px 0px 4px&quot;&gt;+ getCurrentResultExtension () : _result.extension&lt;/p&gt;&lt;p style=&quot;margin: 0px 0px 0px 4px&quot;&gt;+ getCurrentContextExtension () : _context.extension&lt;/p&gt;&lt;p style=&quot;margin: 0px 0px 0px 4px&quot;&gt;&lt;br&gt;&lt;/p&gt;&lt;p style=&quot;margin: 0px 0px 0px 4px&quot;&gt;-startPlayedSegment(start: number) : void&lt;/p&gt;&lt;p style=&quot;margin: 0px 0px 0px 4px&quot;&gt;-endPlayedSegment(end: number) : void&lt;br&gt;&lt;/p&gt;&lt;p style=&quot;margin: 0px 0px 0px 4px&quot;&gt;-calculateDuration() : duration&lt;br&gt;&lt;/p&gt;&lt;p style=&quot;margin: 0px 0px 0px 4px&quot;&gt;-setDuration() : String&lt;br&gt;&lt;/p&gt;&lt;p style=&quot;margin: 0px 0px 0px 4px&quot;&gt;&lt;br&gt;&lt;/p&gt;&lt;p style=&quot;margin: 0px 0px 0px 4px&quot;&gt;+ validateProfile () : Boolean&lt;/p&gt;" style="verticalAlign=top;align=left;overflow=fill;fontSize=12;fontFamily=Helvetica;html=1;collapsible=0;treeFolding=0;container=0;" parent="r9tCrdqP52zc_Ktqozt8-1" vertex="1">
                    <mxGeometry x="860" y="450" width="470" height="810" as="geometry"/>
                </mxCell>
                <mxCell id="BpOH7zpHqrXqsuaNKmB4-1" value="&lt;p style=&quot;margin: 0px ; margin-top: 4px ; text-align: center&quot;&gt;&lt;span&gt;XAPIBuilder&lt;/span&gt;&lt;br&gt;&lt;/p&gt;&lt;hr size=&quot;1&quot;&gt;&amp;nbsp;+ RET_CODE : Array&lt;br&gt;&lt;p style=&quot;margin: 0px ; margin-left: 4px&quot;&gt;+ Actor : type&lt;/p&gt;&lt;p style=&quot;margin: 0px ; margin-left: 4px&quot;&gt;+ Context : type&lt;/p&gt;&lt;p style=&quot;margin: 0px ; margin-left: 4px&quot;&gt;&lt;span&gt;+ Attachment : type&lt;/span&gt;&lt;/p&gt;&lt;p style=&quot;margin: 0px ; margin-left: 4px&quot;&gt;&lt;span&gt;+ Profile : type&lt;/span&gt;&lt;/p&gt;&lt;p style=&quot;margin: 0px ; margin-left: 4px&quot;&gt;&lt;span&gt;&lt;br&gt;&lt;/span&gt;&lt;/p&gt;&lt;p style=&quot;margin: 0px 0px 0px 4px&quot;&gt;- _activityData : Object&lt;br&gt;&lt;/p&gt;&lt;p style=&quot;margin: 0px 0px 0px 4px&quot;&gt;- _actionData : Object&lt;/p&gt;&lt;p style=&quot;margin: 0px 0px 0px 4px&quot;&gt;&lt;br&gt;&lt;/p&gt;&lt;p style=&quot;margin: 0px 0px 0px 4px&quot;&gt;- _profiles : Profile []&lt;/p&gt;&lt;p style=&quot;margin: 0px 0px 0px 4px&quot;&gt;- _actor : Actor&lt;/p&gt;&lt;p style=&quot;margin: 0px 0px 0px 4px&quot;&gt;- _context : Context&lt;/p&gt;&lt;p style=&quot;margin: 0px 0px 0px 4px&quot;&gt;- _activity : Activity&lt;/p&gt;&lt;p style=&quot;margin: 0px 0px 0px 4px&quot;&gt;- _verb : Verb&lt;/p&gt;&lt;p style=&quot;margin: 0px 0px 0px 4px&quot;&gt;- _extensions : Extension []&lt;/p&gt;&lt;p style=&quot;margin: 0px ; margin-left: 4px&quot;&gt;&lt;span&gt;- _result : Result&lt;/span&gt;&lt;/p&gt;&lt;p style=&quot;margin: 0px ; margin-left: 4px&quot;&gt;- _attachments : Attachment []&lt;/p&gt;&lt;p style=&quot;margin: 0px ; margin-left: 4px&quot;&gt;- _statement : Statement&lt;/p&gt;&lt;p style=&quot;margin: 0px ; margin-left: 4px&quot;&gt;&lt;br&gt;&lt;/p&gt;&lt;p style=&quot;margin: 0px ; margin-left: 4px&quot;&gt;- resultCode : Object&lt;/p&gt;&lt;p style=&quot;margin: 0px ; margin-left: 4px&quot;&gt;-&amp;nbsp;registrationVal : String&lt;/p&gt;&lt;p style=&quot;margin: 0px ; margin-left: 4px&quot;&gt;-&amp;nbsp;mediaProfileObjInMember : Object&lt;/p&gt;&lt;p style=&quot;margin: 0px ; margin-left: 4px&quot;&gt;- sessionProfileObjInMember : Object&lt;/p&gt;&lt;p style=&quot;margin: 0px ; margin-left: 4px&quot;&gt;- navigationProfileObjInMember :Object&lt;/p&gt;&lt;hr size=&quot;1&quot;&gt;&amp;nbsp;+ initializeXAPI (data : Object) : RET_CODE&lt;br&gt;&amp;nbsp;- validateActivityData (_activityData) : RET_CODE&lt;br&gt;&lt;p style=&quot;margin: 0px 0px 0px 4px&quot;&gt;- setActor (_activityData) : _actor&lt;/p&gt;&lt;p style=&quot;margin: 0px 0px 0px 4px&quot;&gt;- setContext (_activityData) : _context&lt;/p&gt;&lt;p style=&quot;margin: 0px 0px 0px 4px&quot;&gt;&lt;br&gt;&lt;/p&gt;&amp;nbsp;+ setXAPIData (data) : RET_CODE&lt;br&gt;&lt;p style=&quot;margin: 0px ; margin-left: 4px&quot;&gt;&lt;span&gt;- validateActionData (_actionData) : RET_CODE&lt;/span&gt;&lt;br&gt;&lt;/p&gt;&lt;p style=&quot;margin: 0px ; margin-left: 4px&quot;&gt;- getProfile (_actionData) : _profiles&lt;/p&gt;&lt;p style=&quot;margin: 0px ; margin-left: 4px&quot;&gt;- getStatement (_actor, _verb, _activity) : _statement&lt;/p&gt;&lt;p style=&quot;margin: 0px ; margin-left: 4px&quot;&gt;- validateProfile () : Boolean&lt;/p&gt;&lt;p style=&quot;margin: 0px ; margin-left: 4px&quot;&gt;&lt;br&gt;&lt;/p&gt;&lt;p style=&quot;margin: 0px ; margin-left: 4px&quot;&gt;- getConfigData() : configData&lt;/p&gt;&lt;p style=&quot;margin: 0px ; margin-left: 4px&quot;&gt;- getStatementObj() : _statement&lt;/p&gt;&lt;p style=&quot;margin: 0px ; margin-left: 4px&quot;&gt;&lt;br&gt;&lt;/p&gt;&lt;p style=&quot;margin: 0px ; margin-left: 4px&quot;&gt;&lt;span&gt;- setAttachments (_attachments) : _statement&lt;/span&gt;&lt;/p&gt;" style="verticalAlign=top;align=left;overflow=fill;fontSize=12;fontFamily=Helvetica;html=1;collapsible=0;" parent="r9tCrdqP52zc_Ktqozt8-1" vertex="1">
                    <mxGeometry x="452" y="40" width="302.5" height="630" as="geometry"/>
                </mxCell>
            </root>
        </mxGraphModel>
    </diagram>
</mxfile>